# xmcd
# 
# Track frame offsets:
#     150
#     16253
#     32510
# 
# Disc length: 657
# 
# Revision: 1
# Processed by: cddbd v1.5.2PL0 Copyright (c) Steve Scherf et al.
# Submitted via: fre:ac v1.0.31
# 
DISCID=15028f03
DTITLE=矢澤りえか - Di Gi Charat Character Song Vol.3 La Vie en rose
DYEAR=2008
DGENRE=アニメ
TTITLE0=「呼んだ？ラ・ビ・アン・ローズ▼」
TTITLE1=「呼んだ？ラ・ビ・アン・ローズ▼」 (off vocal)
TTITLE2=Charactor Voice
EXTD=
EXTT0=
EXTT1=
EXTT2=
PLAYORDER=
